<svg xmlns="http://www.w3.org/2000/svg" width="181.37" height="36.977" viewBox="0 0 181.37 36.977">
  <g id="Group_2411" data-name="Group 2411" transform="translate(-383.362 109)">
    <g id="Group_1431" data-name="Group 1431" transform="translate(430.906 -100.783)">
      <path id="Path_3089" data-name="Path 3089" d="M57.768,15.826h6.9a6.474,6.474,0,0,1,4.405,1.368,4.876,4.876,0,0,1,1.564,3.878,4.928,4.928,0,0,1-1.576,3.914,6.438,6.438,0,0,1-4.392,1.383h-5.3v7.674h-1.6Zm6.8,9.17q4.471,0,4.471-3.93,0-3.878-4.471-3.878H59.371v7.806Z" transform="translate(-57.768 -15.813)" fill="#3e5379" stroke="#3e5379" stroke-width="0.5"/>
      <path id="Path_3090" data-name="Path 3090" d="M78.936,22.117l-1.11.1a4.209,4.209,0,0,0-2.959,1.318,4.115,4.115,0,0,0-.919,2.713V33.59H72.373V21.057h1.549v2.2a3.883,3.883,0,0,1,1.617-1.747,6.4,6.4,0,0,1,2.6-.712l.671-.051Z" transform="translate(-56.429 -15.361)" fill="#3e5379" stroke="#3e5379" stroke-width="0.5"/>
      <path id="Path_3091" data-name="Path 3091" d="M82.178,32.971a5.389,5.389,0,0,1-2.03-2.275,7.689,7.689,0,0,1-.724-3.437,7.678,7.678,0,0,1,.724-3.436,5.386,5.386,0,0,1,2.03-2.276,6.135,6.135,0,0,1,6.059,0,5.279,5.279,0,0,1,2.029,2.276,7.822,7.822,0,0,1,.71,3.436,7.836,7.836,0,0,1-.71,3.437,5.27,5.27,0,0,1-2.029,2.275,6.135,6.135,0,0,1-6.059,0m6.085-1.913a5.838,5.838,0,0,0,1.085-3.8,5.872,5.872,0,0,0-1.092-3.786,4.091,4.091,0,0,0-6.086,0,5.917,5.917,0,0,0-1.085,3.786,5.938,5.938,0,0,0,1.059,3.8,3.687,3.687,0,0,0,3.05,1.318,3.761,3.761,0,0,0,3.069-1.319Z" transform="translate(-55.782 -15.361)" fill="#3e5379" stroke="#3e5379" stroke-width="0.5"/>
      <path id="Path_3092" data-name="Path 3092" d="M94.975,34.088q0,4.29-4.314,4.575l-1.136.078-.155-1.266L90.5,37.4a3.1,3.1,0,0,0,2.158-.905,3.194,3.194,0,0,0,.738-2.246V21.478h1.575Zm.258-15.914H93.165v-1.99h2.068Z" transform="translate(-54.87 -15.779)" fill="#3e5379" stroke="#3e5379" stroke-width="0.5"/>
      <path id="Path_3093" data-name="Path 3093" d="M108.693,27.518H99.21a5.381,5.381,0,0,0,1.24,3.6,4.28,4.28,0,0,0,3.308,1.254,6.205,6.205,0,0,0,4.109-1.551l.62,1.24a6.07,6.07,0,0,1-2.107,1.241,7.635,7.635,0,0,1-2.62.466,5.958,5.958,0,0,1-4.522-1.734,6.59,6.59,0,0,1-1.654-4.753,7.608,7.608,0,0,1,.737-3.425,5.474,5.474,0,0,1,2.066-2.3,5.742,5.742,0,0,1,3.062-.816,4.841,4.841,0,0,1,3.85,1.6,6.583,6.583,0,0,1,1.4,4.471Zm-8.139-4.341a5.213,5.213,0,0,0-1.293,3.178h7.985a4.9,4.9,0,0,0-1.035-3.192,3.477,3.477,0,0,0-2.765-1.124,3.814,3.814,0,0,0-2.892,1.139" transform="translate(-54.117 -15.361)" fill="#3e5379" stroke="#3e5379" stroke-width="0.5"/>
      <path id="Path_3094" data-name="Path 3094" d="M112.81,32.97a5.318,5.318,0,0,1-2.056-2.275,7.6,7.6,0,0,1-.724-3.384,7.707,7.707,0,0,1,.738-3.437,5.424,5.424,0,0,1,2.073-2.312,5.953,5.953,0,0,1,3.153-.814,6.908,6.908,0,0,1,2.442.436,4.884,4.884,0,0,1,1.9,1.214l-.594,1.24a7.091,7.091,0,0,0-1.849-1.163,4.893,4.893,0,0,0-1.847-.362,3.967,3.967,0,0,0-3.19,1.383,5.69,5.69,0,0,0-1.176,3.813,5.487,5.487,0,0,0,1.162,3.731,4,4,0,0,0,3.178,1.333,4.88,4.88,0,0,0,1.849-.364,7.809,7.809,0,0,0,1.874-1.136l.594,1.214a5.5,5.5,0,0,1-1.965,1.229,6.81,6.81,0,0,1-2.454.45,5.9,5.9,0,0,1-3.109-.8" transform="translate(-52.975 -15.361)" fill="#3e5379" stroke="#3e5379" stroke-width="0.5"/>
      <path id="Path_3095" data-name="Path 3095" d="M128.365,32.649l-.078,1.318a8.855,8.855,0,0,1-1.214.078,4.2,4.2,0,0,1-3.2-1.15,4.388,4.388,0,0,1-1.085-3.14V22.622H120.3V21.356h2.481V17.48h1.575v3.876h3.67v1.266h-3.67v6.925a3.4,3.4,0,0,0,.738,2.379,2.786,2.786,0,0,0,2.157.8,7.714,7.714,0,0,0,1.11-.076" transform="translate(-52.033 -15.66)" fill="#3e5379" stroke="#3e5379" stroke-width="0.5"/>
      <path id="Path_3096" data-name="Path 3096" d="M147.014,15.824V34.042h-1.5V19l-6.383,12.172h-1.19l-6.433-12.068.025,14.936h-1.527V15.824h1.343l7.206,13.8,7.107-13.8Z" transform="translate(-51.143 -15.812)" fill="#3e5379" stroke="#3e5379" stroke-width="0.5"/>
      <path id="Path_3097" data-name="Path 3097" d="M158.028,21.938a5.05,5.05,0,0,1,1.123,3.591v8.062H157.6v-2.25a4.04,4.04,0,0,1-1.575,1.8,4.452,4.452,0,0,1-2.378.634,5.026,5.026,0,0,1-2.222-.49,3.915,3.915,0,0,1-1.59-1.371,3.44,3.44,0,0,1-.581-1.938,3.059,3.059,0,0,1,.722-2.171,4.423,4.423,0,0,1,2.4-1.111,25.328,25.328,0,0,1,4.677-.336h.546V25.4a3.7,3.7,0,0,0-.7-2.492,2.79,2.79,0,0,0-2.2-.788,7.4,7.4,0,0,0-2.183.326,8.811,8.811,0,0,0-2.158,1.047l-.593-1.213a7.743,7.743,0,0,1,2.273-1.11,8.582,8.582,0,0,1,2.584-.415,4.474,4.474,0,0,1,3.4,1.186m-1.5,9.328a4.043,4.043,0,0,0,1.071-2.893v-.855h-.489a26.315,26.315,0,0,0-3.8.209,3.57,3.57,0,0,0-1.856.709,1.9,1.9,0,0,0-.546,1.461,2.269,2.269,0,0,0,.828,1.8,3.029,3.029,0,0,0,2.04.712,3.614,3.614,0,0,0,2.751-1.14Z" transform="translate(-49.378 -15.361)" fill="#3e5379" stroke="#3e5379" stroke-width="0.5"/>
      <path id="Path_3098" data-name="Path 3098" d="M168.646,22.117l-1.11.1a4.213,4.213,0,0,0-2.959,1.318,4.121,4.121,0,0,0-.917,2.713V33.59h-1.576V21.057h1.551v2.2a3.873,3.873,0,0,1,1.615-1.747,6.411,6.411,0,0,1,2.6-.712l.67-.051Z" transform="translate(-48.201 -15.361)" fill="#3e5379" stroke="#3e5379" stroke-width="0.5"/>
      <path id="Path_3099" data-name="Path 3099" d="M178.529,34.042l-6.846-6.1v6.1h-1.577V15.825h1.577V27.3l6.223-5.786h2.04l-6.512,6.022,7.206,6.512Z" transform="translate(-47.465 -15.812)" fill="#3e5379" stroke="#3e5379" stroke-width="0.5"/>
    </g>
    <g id="Group_1432" data-name="Group 1432" transform="translate(383.362 -109)">
      <path id="Path_3101" data-name="Path 3101" d="M.636,16.954,16.954.636a2.169,2.169,0,0,1,3.068,0L36.341,16.954a2.169,2.169,0,0,1,0,3.068L20.022,36.341a2.17,2.17,0,0,1-3.068,0L.636,20.022a2.169,2.169,0,0,1,0-3.068" transform="translate(0 0)" fill="#1b3e67"/>
      <path id="Path_3102" data-name="Path 3102" d="M23.277,10.9a7.453,7.453,0,0,0-7.453,7.453c0,.2.009.4.024.6V31.58l5.922-5.922a7.545,7.545,0,0,0,1.507.152,7.454,7.454,0,0,0,7.454-7.452h0A7.454,7.454,0,0,0,23.277,10.9" transform="translate(-4.329 -2.983)" fill="#edeeef"/>
      <path id="Path_3103" data-name="Path 3103" d="M24.24,14.133a4.9,4.9,0,1,1-4.9,4.9,4.9,4.9,0,0,1,4.9-4.9" transform="translate(-5.291 -3.867)" fill="#3e5379"/>
    </g>
  </g>
</svg>
